<svg width="60" height="48" viewBox="0 0 60 48" xmlns="http://www.w3.org/2000/svg">
  <!-- Shadow -->
  <polygon 
    points="30,2 45,12 45,20 30,45 15,20 15,12" 
    fill="rgba(0,0,0,0.3)" 
    transform="translate(1, 1)"
  />
  
  <!-- Main pointer body -->
  <polygon 
    points="30,0 45,10 45,18 30,43 15,18 15,10" 
    fill="#E53E3E"
    style="filter: drop-shadow(0 10px 8px rgb(0 0 0 / 0.04)) drop-shadow(0 4px 3px rgb(0 0 0 / 0.1));"
  />
  
  <!-- Highlight on top -->
  <polygon 
    points="30,0 45,10 40,12 30,5" 
    fill="#E53E3E" 
    opacity="0.24"
  />
  
  <!-- Left highlight -->
  <polygon 
    points="30,0 15,10 20,12 30,5" 
    fill="#E53E3E" 
    opacity="0.12"
  />
  
  <!-- Bottom shadow -->
  <polygon 
    points="30,43 15,18 18,20 30,40" 
    fill="#0F172A" 
    opacity="0.56"
  />
  
  <!-- Right shadow -->
  <polygon 
    points="30,43 45,18 42,20 30,40" 
    fill="#0F172A" 
    opacity="0.56"
  />
</svg>