<svg width="100" height="100" viewBox="0 0 100 100" fill="none" xmlns="http://www.w3.org/2000/svg">
<path fill-rule="evenodd" clip-rule="evenodd" d="M50.0178 6.27344C74.1762 6.27344 93.7681 25.8653 93.7681 50.0237C93.7681 74.1821 74.1762 93.774 50.0178 93.774C25.8595 93.774 6.26758 74.1821 6.26758 50.0237C6.26758 25.8653 25.8595 6.27344 50.0178 6.27344ZM40.9326 64.2341L30.2214 53.5141C28.3966 51.6882 28.3962 48.7107 30.2214 46.8852C32.047 45.06 35.0377 45.0714 36.85 46.8852L44.4013 54.4424L63.1864 35.6573C65.0119 33.8318 67.9898 33.8318 69.8149 35.6573C71.6405 37.4825 71.6379 40.4629 69.8149 42.2859L47.7102 64.3906C45.8873 66.2136 42.9068 66.2162 41.0816 64.3906C41.0304 64.3393 40.9809 64.2873 40.9326 64.2341Z" fill="#00BA00"/>
</svg>
