<?xml version="1.0" encoding="UTF-8"?>
<svg id="Layer_1" xmlns="http://www.w3.org/2000/svg" version="1.1" xmlns:xlink="http://www.w3.org/1999/xlink" viewBox="0 0 1224 792">
  <!-- Generator: Adobe Illustrator 29.5.1, SVG Export Plug-In . SVG Version: 2.1.0 Build 141)  -->
  <defs>
    <style>
      .st0 {
        fill: #231f20;
      }

      .st1 {
        fill: #fff;
      }

      .st2 {
        fill: none;
      }

      .st3 {
        clip-path: url(#clippath);
      }
    </style>
    <clipPath id="clippath">
      <circle class="st2" cx="325.66" cy="396" r="254.62"/>
    </clipPath>
  </defs>
  <circle class="st0" cx="325.66" cy="396" r="254.62"/>
  <g>
    <path class="st0" d="M638.9,488.94c-9.41,0-17.16-1.91-23.25-5.73-6.1-3.82-10.73-9.18-13.88-16.09-3.16-6.9-5.11-15.06-5.84-24.46l10.36-3.31c1.03,7.79,2.61,14.69,4.74,20.72,2.13,6.03,5.4,10.69,9.81,14,4.41,3.31,10.5,4.96,18.29,4.96,8.82,0,15.76-2.2,20.83-6.61,5.07-4.41,7.6-11.75,7.6-22.04,0-7.79-2.02-14.8-6.06-21.05-4.04-6.24-9.73-12.96-17.08-20.17l-32.62-32.4c-5.44-5.58-9.4-11.16-11.9-16.75-2.5-5.58-3.75-11.31-3.75-17.19,0-11.75,3.64-20.79,10.91-27.11,7.27-6.32,16.71-9.48,28.32-9.48,6.02,0,11.46.77,16.31,2.31,4.85,1.54,9.07,4.04,12.67,7.49,3.6,3.45,6.43,8.04,8.49,13.77,2.06,5.73,3.38,12.78,3.97,21.16l-10.14,2.42c-.59-8.37-1.98-15.35-4.19-20.94-2.2-5.58-5.44-9.73-9.7-12.45-4.26-2.72-9.99-4.08-17.19-4.08-8.08,0-14.84,2.06-20.28,6.17-5.44,4.12-8.15,10.73-8.15,19.83,0,4.56.92,8.96,2.75,13.22,1.83,4.26,5.25,8.89,10.25,13.88l32.18,31.74c7.2,7.05,13.41,14.58,18.62,22.59,5.21,8.01,7.82,16.79,7.82,26.34,0,8.96-1.69,16.35-5.07,22.15-3.38,5.81-8.08,10.1-14.11,12.89-6.03,2.79-12.93,4.19-20.72,4.19Z"/>
    <path class="st0" d="M726.39,486.74v-168.82h-35.7v-9.7h82.42v9.7h-34.82v168.82h-11.9Z"/>
    <path class="st0" d="M776.2,486.74l37.47-178.51h13.88l37.69,178.51h-12.12l-9.26-49.37h-46.28l-9.48,49.37h-11.9ZM799.34,428.56h42.98l-21.6-105.79-21.38,105.79Z"/>
    <path class="st0" d="M888.81,486.74v-178.51h36.8c8.23,0,15.02,1.14,20.39,3.42,5.36,2.28,9.55,5.48,12.56,9.59,3.01,4.11,5.14,8.85,6.39,14.21,1.25,5.37,1.87,11.13,1.87,17.3,0,4.7-.55,9.74-1.65,15.1-1.1,5.37-3.12,10.1-6.06,14.21-2.94,4.12-7.35,6.91-13.22,8.38,6.9,2.06,12.16,5.58,15.76,10.58,3.6,5,6.02,10.54,7.27,16.64,1.25,6.1,1.87,11.79,1.87,17.08,0,6.76-.48,13.22-1.43,19.39-.96,6.17-2.83,11.72-5.62,16.64-2.79,4.92-6.8,8.82-12.01,11.68-5.22,2.87-12.16,4.3-20.83,4.3h-42.09ZM900.71,386.46h30.19c6.61,0,11.68-1.54,15.21-4.63,3.53-3.09,5.98-7.16,7.38-12.23,1.39-5.07,2.09-10.69,2.09-16.86,0-6.61-.81-12.56-2.42-17.85-1.62-5.29-4.74-9.44-9.37-12.45-4.63-3.01-11.65-4.52-21.05-4.52h-22.04v68.54ZM900.71,477.26h28.65c11.75,0,19.65-3.45,23.69-10.36,4.04-6.9,6.06-17.56,6.06-31.96,0-7.2-.85-13.74-2.53-19.61-1.69-5.88-4.56-10.58-8.6-14.11-4.04-3.53-9.66-5.29-16.86-5.29h-30.41v81.32Z"/>
    <path class="st0" d="M996.36,486.74v-178.51h11.9v169.04h54v9.48h-65.9Z"/>
    <path class="st0" d="M1078.34,486.74v-178.51h61.71v9.7h-49.59v71.63h40.77v9.26h-40.77v78.46h50.25v9.48h-62.37Z"/>
  </g>
  <g class="st3">
    <g>
      <path class="st1" d="M120.66,523.09c-14.66,0-26.86-3.14-36.6-9.42-9.74-6.28-17.12-14.97-22.15-26.07-5.03-11.1-7.96-23.98-8.8-38.64l31.41-8.48c.63,9.01,2.04,17.7,4.24,26.07,2.2,8.38,5.81,15.24,10.84,20.58,5.03,5.34,12.04,8.01,21.05,8.01s16.18-2.56,20.89-7.7c4.71-5.13,7.07-12.51,7.07-22.15,0-11.52-2.62-20.78-7.85-27.8-5.24-7.01-11.83-14.08-19.79-21.2l-42.72-37.7c-8.38-7.33-14.56-15.34-18.53-24.03-3.98-8.69-5.97-19.42-5.97-32.2,0-18.64,5.34-33.09,16.02-43.35,10.68-10.26,25.23-15.39,43.66-15.39,10.05,0,18.9,1.31,26.54,3.93,7.64,2.62,14.03,6.65,19.16,12.09,5.13,5.45,9.21,12.31,12.25,20.58,3.03,8.28,5.08,17.96,6.13,29.06l-30.16,8.17c-.63-8.37-1.88-16.07-3.77-23.09-1.88-7.01-5.18-12.67-9.9-16.96-4.71-4.29-11.47-6.44-20.26-6.44s-15.66,2.36-20.58,7.07c-4.92,4.71-7.38,11.68-7.38,20.89,0,7.75,1.31,14.14,3.93,19.16,2.62,5.03,6.86,10.16,12.72,15.39l43.04,37.7c9.63,8.38,18.11,18.38,25.44,30,7.33,11.62,10.99,25.4,10.99,41.31,0,12.56-2.62,23.4-7.85,32.51-5.24,9.11-12.41,16.07-21.52,20.89-9.11,4.81-19.63,7.22-31.57,7.22Z"/>
      <path class="st1" d="M209.25,520.26v-254.45h63.14c15.28,0,27.49,2.78,36.6,8.32,9.11,5.55,15.76,13.56,19.95,24.03,4.19,10.47,6.28,23.14,6.28,38.01,0,13.4-2.36,25.03-7.07,34.87-4.71,9.85-11.68,17.43-20.89,22.78-9.22,5.34-20.73,8.01-34.55,8.01h-27.96v118.43h-35.5ZM244.74,376.39h16.33c10.26,0,18.32-1.15,24.19-3.46,5.86-2.3,10.05-6.33,12.57-12.09,2.51-5.76,3.77-13.87,3.77-24.35,0-12.14-.89-21.46-2.67-27.96-1.78-6.49-5.5-10.99-11.15-13.51s-14.45-3.77-26.39-3.77h-16.65v85.13Z"/>
      <path class="st1" d="M361.91,520.26v-254.45h34.87v254.45h-34.87Z"/>
      <path class="st1" d="M437.93,520.26v-254.45h24.19l72.25,169v-169h29.53v254.45h-22.62l-73.19-173.71v173.71h-30.16Z"/>
    </g>
  </g>
</svg>