<?xml version="1.0" encoding="UTF-8"?>
<svg id="Layer_1" data-name="Layer 1" xmlns="http://www.w3.org/2000/svg" xmlns:xlink="http://www.w3.org/1999/xlink" viewBox="0 0 1224 792">
  <defs>
    <style>
      .cls-1 {
        fill: #231f20;
      }

      .cls-2 {
        fill: #fff;
      }

      .cls-3 {
        fill: none;
      }

      .cls-4 {
        clip-path: url(#clippath);
      }
    </style>
    <clipPath id="clippath">
      <circle class="cls-3" cx="325.66" cy="396" r="251.61"/>
    </clipPath>
  </defs>
  <circle class="cls-1" cx="325.66" cy="396" r="251.61"/>
  <g>
    <path class="cls-1" d="M638.9,488.94c-9.41,0-17.16-1.91-23.25-5.73-6.1-3.82-10.73-9.18-13.88-16.09-3.16-6.9-5.11-15.06-5.84-24.46l10.36-3.31c1.03,7.79,2.61,14.69,4.74,20.72,2.13,6.03,5.4,10.69,9.81,14,4.41,3.31,10.5,4.96,18.29,4.96,8.82,0,15.76-2.2,20.83-6.61,5.07-4.41,7.6-11.75,7.6-22.04,0-7.79-2.02-14.8-6.06-21.05-4.04-6.24-9.73-12.96-17.08-20.17l-32.62-32.4c-5.44-5.58-9.4-11.16-11.9-16.75-2.5-5.58-3.75-11.31-3.75-17.19,0-11.75,3.64-20.79,10.91-27.11,7.27-6.32,16.71-9.48,28.32-9.48,6.02,0,11.46.77,16.31,2.31,4.85,1.54,9.07,4.04,12.67,7.49,3.6,3.45,6.43,8.04,8.49,13.77,2.06,5.73,3.38,12.78,3.97,21.16l-10.14,2.42c-.59-8.37-1.98-15.35-4.19-20.94-2.2-5.58-5.44-9.73-9.7-12.45-4.26-2.72-9.99-4.08-17.19-4.08-8.08,0-14.84,2.06-20.28,6.17-5.44,4.12-8.15,10.73-8.15,19.83,0,4.56.92,8.96,2.75,13.22,1.83,4.26,5.25,8.89,10.25,13.88l32.18,31.74c7.2,7.05,13.41,14.58,18.62,22.59,5.21,8.01,7.82,16.79,7.82,26.34,0,8.96-1.69,16.35-5.07,22.15-3.38,5.81-8.08,10.1-14.11,12.89-6.03,2.79-12.93,4.19-20.72,4.19Z"/>
    <path class="cls-1" d="M726.39,486.74v-168.82h-35.7v-9.7h82.42v9.7h-34.82v168.82h-11.9Z"/>
    <path class="cls-1" d="M776.2,486.74l37.47-178.51h13.88l37.69,178.51h-12.12l-9.26-49.37h-46.28l-9.48,49.37h-11.9ZM799.34,428.56h42.98l-21.6-105.79-21.38,105.79Z"/>
    <path class="cls-1" d="M888.81,486.74v-178.51h36.8c8.23,0,15.02,1.14,20.39,3.42,5.36,2.28,9.55,5.48,12.56,9.59,3.01,4.11,5.14,8.85,6.39,14.21,1.25,5.37,1.87,11.13,1.87,17.3,0,4.7-.55,9.74-1.65,15.1-1.1,5.37-3.12,10.1-6.06,14.21-2.94,4.12-7.35,6.91-13.22,8.38,6.9,2.06,12.16,5.58,15.76,10.58,3.6,5,6.02,10.54,7.27,16.64,1.25,6.1,1.87,11.79,1.87,17.08,0,6.76-.48,13.22-1.43,19.39-.96,6.17-2.83,11.72-5.62,16.64-2.79,4.92-6.8,8.82-12.01,11.68-5.22,2.87-12.16,4.3-20.83,4.3h-42.09ZM900.71,386.46h30.19c6.61,0,11.68-1.54,15.21-4.63,3.53-3.09,5.98-7.16,7.38-12.23,1.39-5.07,2.09-10.69,2.09-16.86,0-6.61-.81-12.56-2.42-17.85-1.62-5.29-4.74-9.44-9.37-12.45-4.63-3.01-11.65-4.52-21.05-4.52h-22.04v68.54ZM900.71,477.26h28.65c11.75,0,19.65-3.45,23.69-10.36,4.04-6.9,6.06-17.56,6.06-31.96,0-7.2-.85-13.74-2.53-19.61-1.69-5.88-4.56-10.58-8.6-14.11-4.04-3.53-9.66-5.29-16.86-5.29h-30.41v81.32Z"/>
    <path class="cls-1" d="M996.36,486.74v-178.51h11.9v169.04h54v9.48h-65.9Z"/>
    <path class="cls-1" d="M1078.34,486.74v-178.51h61.71v9.7h-49.59v71.63h40.77v9.26h-40.77v78.46h50.25v9.48h-62.37Z"/>
  </g>
  <g class="cls-4">
    <g>
      <path class="cls-2" d="M123.08,521.59c-14.49,0-26.54-3.1-36.16-9.31-9.62-6.21-16.92-14.79-21.88-25.77-4.97-10.97-7.87-23.69-8.69-38.18l31.04-8.38c.62,8.9,2.02,17.49,4.19,25.76,2.17,8.28,5.74,15.06,10.71,20.33,4.97,5.28,11.9,7.92,20.8,7.92s15.99-2.53,20.64-7.61c4.66-5.07,6.98-12.36,6.98-21.88,0-11.38-2.59-20.54-7.76-27.47-5.18-6.93-11.69-13.92-19.56-20.95l-42.22-37.25c-8.28-7.24-14.39-15.16-18.32-23.75-3.93-8.59-5.9-19.19-5.9-31.82,0-18.42,5.28-32.7,15.83-42.84,10.55-10.14,24.94-15.21,43.15-15.21,9.93,0,18.67,1.3,26.23,3.88,7.55,2.59,13.86,6.57,18.94,11.95,5.07,5.38,9.1,12.16,12.11,20.33,3,8.18,5.02,17.75,6.05,28.71l-29.8,8.07c-.62-8.27-1.86-15.88-3.73-22.82-1.86-6.93-5.12-12.52-9.78-16.76-4.66-4.24-11.33-6.36-20.02-6.36s-15.47,2.33-20.33,6.98c-4.86,4.66-7.3,11.54-7.3,20.64,0,7.66,1.29,13.97,3.88,18.94,2.59,4.97,6.78,10.04,12.57,15.21l42.53,37.25c9.52,8.28,17.9,18.16,25.14,29.65,7.24,11.49,10.86,25.1,10.86,40.82,0,12.42-2.59,23.13-7.76,32.13-5.17,9-12.26,15.88-21.26,20.64-9,4.76-19.4,7.14-31.2,7.14Z"/>
      <path class="cls-2" d="M210.62,518.79v-251.44h62.39c15.1,0,27.16,2.75,36.16,8.23,9,5.49,15.57,13.4,19.71,23.75,4.14,10.35,6.21,22.87,6.21,37.56,0,13.25-2.33,24.73-6.98,34.46-4.66,9.73-11.54,17.23-20.64,22.51-9.11,5.28-20.49,7.92-34.15,7.92h-27.63v117.03h-35.08ZM245.7,376.62h16.14c10.14,0,18.11-1.13,23.9-3.42,5.79-2.27,9.93-6.26,12.42-11.95,2.48-5.69,3.73-13.71,3.73-24.06,0-12-.88-21.21-2.64-27.63-1.76-6.41-5.43-10.86-11.02-13.35s-14.28-3.73-26.08-3.73h-16.45v84.12Z"/>
      <path class="cls-2" d="M361.48,518.79v-251.44h34.46v251.44h-34.46Z"/>
      <path class="cls-2" d="M436.6,518.79v-251.44h23.9l71.4,167.01v-167.01h29.18v251.44h-22.35l-72.33-171.66v171.66h-29.8Z"/>
    </g>
  </g>
</svg>